<?xml version="1.0" encoding="utf-8"?>
<!-- Generator: Adobe Illustrator 15.0.2, SVG Export Plug-In . SVG Version: 6.00 Build 0)  -->
<!DOCTYPE svg PUBLIC "-//W3C//DTD SVG 1.1//EN" "http://www.w3.org/Graphics/SVG/1.1/DTD/svg11.dtd">
<svg version="1.1" id="Layer_1" xmlns="http://www.w3.org/2000/svg" xmlns:xlink="http://www.w3.org/1999/xlink" x="0px" y="0px"
	 width="512px" height="512px" viewBox="0 0 512 512" enable-background="new 0 0 512 512" xml:space="preserve">
<g>
	<path fill="#231F20" d="M379.267,322.6l-66.62-66.606l66.594-66.6c2.76-2.76,2.76-7.237,0-9.997l-46.641-46.66
		c-2.773-2.756-7.239-2.756-10,0l-66.606,66.604L189.4,132.736c-2.65-2.646-7.341-2.646-9.997,0l-46.66,46.66
		c-1.323,1.334-2.073,3.127-2.073,4.997c0,1.873,0.75,3.673,2.073,5l66.604,66.6l-66.616,66.613c-1.324,1.32-2.074,3.127-2.074,5
		c0,1.86,0.75,3.674,2.074,4.987l46.646,46.659c1.326,1.32,3.133,2.067,5.003,2.067c1.873,0,3.674-0.747,4.993-2.067l66.607-66.613
		l66.613,66.601c1.38,1.387,3.18,2.08,4.993,2.08c1.819,0,3.626-0.693,5-2.08l46.666-46.653
		C382.02,329.84,382.02,325.36,379.267,322.6z"/>
	<g>
		<path fill="#231F20" d="M256,67.856c103.733,0,188.146,84.427,188.146,188.157c0,103.746-84.413,188.133-188.146,188.133
			c-103.736,0-188.144-84.387-188.144-188.133C67.856,152.283,152.264,67.856,256,67.856 M256,0C114.62,0,0,114.64,0,256.014
			C0,397.394,114.62,512,256,512c141.373,0,256-114.606,256-255.986C512,114.64,397.373,0,256,0L256,0z"/>
	</g>
</g>
</svg>
